<svg id="Layer_1" data-name="Layer 1" xmlns="http://www.w3.org/2000/svg" viewBox="0 0 1366 768"><defs><style>.cls-1{fill:#0c9;}</style></defs><title>svg8</title><circle class="cls-1" cx="374.95" cy="233.59" r="70.54"/><path class="cls-1" d="M355,316.5h39.9a84,84,0,0,1,84,84V524.4a0,0,0,0,1,0,0H271a0,0,0,0,1,0,0V400.5a84,84,0,0,1,84-84Z"/><circle class="cls-1" cx="674.43" cy="278.14" r="70.54"/><path class="cls-1" d="M654.47,361.05h39.9a84,84,0,0,1,84,84v123.9a0,0,0,0,1,0,0H570.48a0,0,0,0,1,0,0V445A84,84,0,0,1,654.47,361.05Z"/><circle class="cls-1" cx="959.05" cy="238.54" r="70.54"/><path class="cls-1" d="M939.1,321.45H979a84,84,0,0,1,84,84v123.9a0,0,0,0,1,0,0H855.1a0,0,0,0,1,0,0V405.45A84,84,0,0,1,939.1,321.45Z"/></svg>